<svg width="25" height="25" viewBox="0 0 25 25" fill="none" xmlns="http://www.w3.org/2000/svg">
<g clip-path="url(#clip0)">
<path d="M23.2759 25H1.72412C0.775879 25 0 24.2241 0 23.2759V1.72412C0 0.775879 0.775879 0 1.72412 0H23.2759C24.2241 0 25 0.775879 25 1.72412V23.2759C25 24.2241 24.2241 25 23.2759 25Z" fill="#454545"/>
<path d="M21.1208 4.3106V8.62095H17.2415C16.7674 8.62095 16.3794 9.00889 16.3794 9.48301V12.0692H20.6898V16.3796H16.3794V25.0002H12.0691V16.3795H8.62079V12.0692H12.0691V9.48296C12.0691 6.76743 14.138 4.52607 16.8104 4.31055H21.1208V4.3106Z" fill="#F7F7F8"/>
</g>
<defs>
<clipPath id="clip0">
<rect width="25" height="25" fill="white"/>
</clipPath>
</defs>
</svg>
