<svg xmlns="http://www.w3.org/2000/svg" viewBox="0 0 1093.11 385.09"><defs><style>.cls-1{fill:#06c;}</style></defs><title>Asset 1</title><g id="Layer_2" data-name="Layer 2"><g id="Layer_1-2" data-name="Layer 1"><path class="cls-1" d="M327.12,263.46V118.81h65.23q25.32,0,38.5,14.39,11.53,12.36,11.53,32t-11.53,32q-13.17,14.39-38.5,14.39H358.92v51.85Zm31.8-119.92v43.33h24.73q12.94,0,19.43-3.82,8.52-5.27,8.52-17.84t-8.52-17.84c-4.32-2.54-10.8-3.83-19.43-3.83Z"/><path class="cls-1" d="M454.55,263.46V158.72H481.9v19.47h.4a34,34,0,0,1,13.37-16,36,36,0,0,1,20.06-6.27,20.24,20.24,0,0,1,6.29,1v26.74a46.34,46.34,0,0,0-10.35-1q-28.35,0-28.36,33.61v47.21Z"/><path class="cls-1" d="M529.1,211.2q0-25.11,14.8-40.22t39.3-15.08q24.72,0,39.51,15.08t14.78,40.22q0,24.93-14.78,40T583.2,266.29q-24.53,0-39.3-15.08T529.1,211.2Zm28.77,0q0,14.38,5.47,22.89,6.49,10.53,19.86,10.53,25.51,0,25.52-33.42,0-33.63-25.52-33.64Q557.88,177.56,557.87,211.2Z"/><path class="cls-1" d="M652.48,263.46V118.81h62.39q29.37,0,46.8,17.84,18.84,18.81,18.85,53.67,0,32.82-16.21,52.26-17.43,20.88-49.44,20.88Zm31.8-117.91v91.17h28.36q15.4,0,24.92-9.72,11.16-11.33,11.15-33.64,0-23.28-8.92-34.83-10.14-13-32.82-13Z"/><path class="cls-1" d="M892.16,218.1H816.59q1.21,26.52,25.72,26.52a26.36,26.36,0,0,0,15-4.45c4.19-2.57,6.74-5.61,7.7-9.12h25.32q-11.55,35.26-49,35.24-24.52,0-39-15.27T787.82,211.2q0-23.89,14.89-39.6t38.6-15.7q25.52,0,39.5,19Q893.77,192.38,892.16,218.1Zm-75.57-18.25h46.79q-4.05-22.29-22.89-22.29-12.15,0-18.64,8.12A23.94,23.94,0,0,0,816.59,199.85Z"/><path class="cls-1" d="M995.87,158.72,960.42,263.46h-32L892.55,158.72h30.18l22.09,71.51h.41l22.08-71.51Z"/><path class="cls-1" d="M996.08,229.42h27.35q.2,8.93,6.89,13.57,5.87,4.09,15.19,4.08a25.48,25.48,0,0,0,12.57-2.86c4.17-2.41,6.27-5.92,6.27-10.53,0-4-2.84-7.3-8.51-9.72q-6.08-2.62-24.11-6.49-15.39-3.24-22.89-8.5c-6.88-4.6-10.33-11.06-10.33-19.46q0-33.63,45.58-33.61,43.35,0,46.19,33.42h-27.34c-.69-9.47-7.23-14.17-19.66-14.17q-16,0-16,9.71,0,6.69,10.13,10.32,1.23.42,22.5,5.27,15.58,3.66,22.88,8.93,10.35,7.29,10.33,20.44,0,19.05-15,28.57-12.37,7.89-32.83,7.9t-33.22-8.09Q996.9,248.69,996.08,229.42Z"/><path class="cls-1" d="M185.37,206.12a7.08,7.08,0,0,0,8.45,7c23.3-4.68,86.23-23.07,78.84-84.67C267.84,92.62,213.37,84.74,193,83a7.06,7.06,0,0,0-7.63,7.09Z"/><path class="cls-1" d="M140.69,60.1,13.24.67A7.11,7.11,0,0,0,3.13,7.06L0,377.92a7.11,7.11,0,0,0,10.11,6.5l130.58-60.9a7.08,7.08,0,0,0,4.11-6.44V66.55A7.12,7.12,0,0,0,140.69,60.1ZM33.88,213.26a16.85,16.85,0,1,1,16.85-16.85A16.85,16.85,0,0,1,33.88,213.26Z"/></g></g></svg>