<svg width="720" height="900" viewBox="0 0 720 900" fill="none" xmlns="http://www.w3.org/2000/svg">
<g opacity="0.3">
<g clip-path="url(#clip0)">
<path d="M85.925 57.1997H-98.2V241.325H85.925V57.1997Z" stroke="#0552B5" stroke-opacity="0.1" stroke-width="15.712"/>
<path d="M73.65 69.4746H-85.925V229.05H73.65V69.4746Z" stroke="#0552B5" stroke-opacity="0.1" stroke-width="15.712"/>
<path d="M61.375 81.75H-73.65V216.775H61.375V81.75Z" stroke="#0552B5" stroke-opacity="0.1" stroke-width="15.712"/>
<path d="M49.1 94.0249H-61.375V204.5H49.1V94.0249Z" stroke="#0552B5" stroke-opacity="0.1" stroke-width="15.712"/>
<path d="M36.825 106.3H-49.1V192.225H36.825V106.3Z" stroke="#0552B5" stroke-opacity="0.1" stroke-width="15.712"/>
<path d="M24.55 118.575H-36.825V179.95H24.55V118.575Z" stroke="#0552B5" stroke-opacity="0.1" stroke-width="15.712"/>
<path d="M12.2749 130.85H-24.55V167.675H12.2749V130.85Z" stroke="#0552B5" stroke-opacity="0.1" stroke-width="15.712"/>
<path d="M-2.47955e-05 143.125H-12.275V155.4H-2.47955e-05V143.125Z" stroke="#0552B5" stroke-opacity="0.1" stroke-width="15.712"/>
<path d="M85.925 -41H0V44.925H85.925V-41Z" stroke="#0552B5" stroke-opacity="0.1" stroke-width="15.712"/>
<path d="M73.65 -28.7251H12.275V32.6499H73.65V-28.7251Z" stroke="#0552B5" stroke-opacity="0.1" stroke-width="15.712"/>
<path d="M61.375 -16.4502H24.55V20.3748H61.375V-16.4502Z" stroke="#0552B5" stroke-opacity="0.1" stroke-width="15.712"/>
<path d="M49.1 -4.17529H36.825V8.09971H49.1V-4.17529Z" stroke="#0552B5" stroke-opacity="0.1" stroke-width="15.712"/>
<path d="M282.325 -41H98.2V143.125H282.325V-41Z" stroke="#0552B5" stroke-opacity="0.1" stroke-width="15.712"/>
<path d="M270.05 -28.7251H110.475V130.85H270.05V-28.7251Z" stroke="#0552B5" stroke-opacity="0.1" stroke-width="15.712"/>
<path d="M257.775 -16.4502H122.75V118.575H257.775V-16.4502Z" stroke="#0552B5" stroke-opacity="0.1" stroke-width="15.712"/>
<path d="M245.5 -4.17529H135.025V106.3H245.5V-4.17529Z" stroke="#0552B5" stroke-opacity="0.1" stroke-width="15.712"/>
<path d="M233.225 8.09961H147.3V94.0246H233.225V8.09961Z" stroke="#0552B5" stroke-opacity="0.1" stroke-width="15.712"/>
<path d="M220.95 20.375H159.575V81.75H220.95V20.375Z" stroke="#0552B5" stroke-opacity="0.1" stroke-width="15.712"/>
<path d="M208.675 32.6499H171.85V69.4749H208.675V32.6499Z" stroke="#0552B5" stroke-opacity="0.1" stroke-width="15.712"/>
<path d="M196.4 44.9248H184.125V57.1998H196.4V44.9248Z" stroke="#0552B5" stroke-opacity="0.1" stroke-width="15.712"/>
<path d="M184.125 155.4H98.2V241.325H184.125V155.4Z" stroke="#0552B5" stroke-opacity="0.1" stroke-width="15.712"/>
<path d="M171.85 167.675H110.475V229.05H171.85V167.675Z" stroke="#0552B5" stroke-opacity="0.1" stroke-width="15.712"/>
<path d="M159.575 179.95H122.75V216.775H159.575V179.95Z" stroke="#0552B5" stroke-opacity="0.1" stroke-width="15.712"/>
<path d="M147.3 192.225H135.025V204.5H147.3V192.225Z" stroke="#0552B5" stroke-opacity="0.1" stroke-width="15.712"/>
<path d="M478.725 -139.2H294.6V44.9248H478.725V-139.2Z" stroke="#0552B5" stroke-opacity="0.1" stroke-width="15.712"/>
<path d="M466.45 -126.925H306.875V32.6497H466.45V-126.925Z" stroke="#0552B5" stroke-opacity="0.1" stroke-width="15.712"/>
<path d="M454.175 -114.65H319.15V20.3746H454.175V-114.65Z" stroke="#0552B5" stroke-opacity="0.1" stroke-width="15.712"/>
<path d="M441.9 -102.375H331.425V8.1H441.9V-102.375Z" stroke="#0552B5" stroke-opacity="0.1" stroke-width="15.712"/>
<path d="M429.625 -90.1001H343.7V-4.1751H429.625V-90.1001Z" stroke="#0552B5" stroke-opacity="0.1" stroke-width="15.712"/>
<path d="M380.525 57.1997H294.6V143.125H380.525V57.1997Z" stroke="#0552B5" stroke-opacity="0.1" stroke-width="15.712"/>
<path d="M368.25 69.4746H306.875V130.85H368.25V69.4746Z" stroke="#0552B5" stroke-opacity="0.1" stroke-width="15.712"/>
<path d="M355.975 81.75H319.15V118.575H355.975V81.75Z" stroke="#0552B5" stroke-opacity="0.1" stroke-width="15.712"/>
<path d="M343.7 94.0249H331.425V106.3H343.7V94.0249Z" stroke="#0552B5" stroke-opacity="0.1" stroke-width="15.712"/>
<path d="M184.125 253.6H0V437.725H184.125V253.6Z" stroke="#0552B5" stroke-opacity="0.1" stroke-width="15.712"/>
<path d="M171.85 265.875H12.275V425.45H171.85V265.875Z" stroke="#0552B5" stroke-opacity="0.1" stroke-width="15.712"/>
<path d="M159.575 278.15H24.55V413.175H159.575V278.15Z" stroke="#0552B5" stroke-opacity="0.1" stroke-width="15.712"/>
<path d="M147.3 290.425H36.825V400.9H147.3V290.425Z" stroke="#0552B5" stroke-opacity="0.1" stroke-width="15.712"/>
<path d="M135.025 302.7H49.1V388.625H135.025V302.7Z" stroke="#0552B5" stroke-opacity="0.1" stroke-width="15.712"/>
<path d="M122.75 314.975H61.375V376.35H122.75V314.975Z" stroke="#0552B5" stroke-opacity="0.1" stroke-width="15.712"/>
<path d="M110.475 327.25H73.65V364.075H110.475V327.25Z" stroke="#0552B5" stroke-opacity="0.1" stroke-width="15.712"/>
<path d="M98.2 339.525H85.925V351.8H98.2V339.525Z" stroke="#0552B5" stroke-opacity="0.1" stroke-width="15.712"/>
<path d="M675.125 253.6H491V437.725H675.125V253.6Z" stroke="#0552B5" stroke-opacity="0.1" stroke-width="15.712"/>
<path d="M282.325 450H98.2V634.125H282.325V450Z" stroke="#0552B5" stroke-opacity="0.1" stroke-width="15.712"/>
<path d="M380.525 155.4H196.4V339.525H380.525V155.4Z" stroke="#0552B5" stroke-opacity="0.1" stroke-width="15.712"/>
<path d="M368.25 167.675H208.675V327.25H368.25V167.675Z" stroke="#0552B5" stroke-opacity="0.1" stroke-width="15.712"/>
<path d="M355.975 179.95H220.95V314.975H355.975V179.95Z" stroke="#0552B5" stroke-opacity="0.1" stroke-width="15.712"/>
<path d="M343.7 192.225H233.225V302.7H343.7V192.225Z" stroke="#0552B5" stroke-opacity="0.1" stroke-width="15.712"/>
<path d="M331.425 204.5H245.5V290.425H331.425V204.5Z" stroke="#0552B5" stroke-opacity="0.1" stroke-width="15.712"/>
<path d="M319.15 216.775H257.775V278.15H319.15V216.775Z" stroke="#0552B5" stroke-opacity="0.1" stroke-width="15.712"/>
<path d="M306.875 229.05H270.05V265.875H306.875V229.05Z" stroke="#0552B5" stroke-opacity="0.1" stroke-width="15.712"/>
<path d="M294.6 241.325H282.325V253.6H294.6V241.325Z" stroke="#0552B5" stroke-opacity="0.1" stroke-width="15.712"/>
<path d="M282.325 351.8H196.4V437.725H282.325V351.8Z" stroke="#0552B5" stroke-opacity="0.1" stroke-width="15.712"/>
<path d="M270.05 364.075H208.675V425.45H270.05V364.075Z" stroke="#0552B5" stroke-opacity="0.1" stroke-width="15.712"/>
<path d="M257.775 376.35H220.95V413.175H257.775V376.35Z" stroke="#0552B5" stroke-opacity="0.1" stroke-width="15.712"/>
<path d="M245.5 388.625H233.225V400.9H245.5V388.625Z" stroke="#0552B5" stroke-opacity="0.1" stroke-width="15.712"/>
<path d="M478.725 351.8H294.6V535.925H478.725V351.8Z" stroke="#0552B5" stroke-opacity="0.1" stroke-width="15.712"/>
<path d="M466.45 364.075H306.875V523.65H466.45V364.075Z" stroke="#0552B5" stroke-opacity="0.1" stroke-width="15.712"/>
<path d="M454.175 376.35H319.15V511.375H454.175V376.35Z" stroke="#0552B5" stroke-opacity="0.1" stroke-width="15.712"/>
<path d="M441.9 388.625H331.425V499.1H441.9V388.625Z" stroke="#0552B5" stroke-opacity="0.1" stroke-width="15.712"/>
<path d="M429.625 400.9H343.7V486.825H429.625V400.9Z" stroke="#0552B5" stroke-opacity="0.1" stroke-width="15.712"/>
<path d="M417.35 413.175H355.975V474.55H417.35V413.175Z" stroke="#0552B5" stroke-opacity="0.1" stroke-width="15.712"/>
<path d="M405.075 425.45H368.25V462.275H405.075V425.45Z" stroke="#0552B5" stroke-opacity="0.1" stroke-width="15.712"/>
<path d="M392.8 437.725H380.525V450H392.8V437.725Z" stroke="#0552B5" stroke-opacity="0.1" stroke-width="15.712"/>
<path d="M576.925 57.1997H392.8V241.325H576.925V57.1997Z" stroke="#0552B5" stroke-opacity="0.1" stroke-width="15.712"/>
<path d="M564.65 69.4746H405.075V229.05H564.65V69.4746Z" stroke="#0552B5" stroke-opacity="0.1" stroke-width="15.712"/>
<path d="M552.375 81.75H417.35V216.775H552.375V81.75Z" stroke="#0552B5" stroke-opacity="0.1" stroke-width="15.712"/>
<path d="M540.1 94.0249H429.625V204.5H540.1V94.0249Z" stroke="#0552B5" stroke-opacity="0.1" stroke-width="15.712"/>
<path d="M527.825 106.3H441.9V192.225H527.825V106.3Z" stroke="#0552B5" stroke-opacity="0.1" stroke-width="15.712"/>
<path d="M515.55 118.575H454.175V179.95H515.55V118.575Z" stroke="#0552B5" stroke-opacity="0.1" stroke-width="15.712"/>
<path d="M503.275 130.85H466.45V167.675H503.275V130.85Z" stroke="#0552B5" stroke-opacity="0.1" stroke-width="15.712"/>
<path d="M491 143.125H478.725V155.4H491V143.125Z" stroke="#0552B5" stroke-opacity="0.1" stroke-width="15.712"/>
<path d="M478.725 253.6H392.8V339.525H478.725V253.6Z" stroke="#0552B5" stroke-opacity="0.1" stroke-width="15.712"/>
<path d="M466.45 265.875H405.075V327.25H466.45V265.875Z" stroke="#0552B5" stroke-opacity="0.1" stroke-width="15.712"/>
<path d="M454.175 278.15H417.35V314.975H454.175V278.15Z" stroke="#0552B5" stroke-opacity="0.1" stroke-width="15.712"/>
<path d="M441.9 290.425H429.625V302.7H441.9V290.425Z" stroke="#0552B5" stroke-opacity="0.1" stroke-width="15.712"/>
<path d="M576.925 450H491V535.925H576.925V450Z" stroke="#0552B5" stroke-opacity="0.1" stroke-width="15.712"/>
<path d="M576.925 -41H491V44.925H576.925V-41Z" stroke="#0552B5" stroke-opacity="0.1" stroke-width="15.712"/>
<path d="M85.925 450H0V535.925H85.925V450Z" stroke="#0552B5" stroke-opacity="0.1" stroke-width="15.712"/>
</g>
<g clip-path="url(#clip1)">
<path d="M576.925 57.1997H392.8V241.325H576.925V57.1997Z" stroke="#0552B5" stroke-opacity="0.1" stroke-width="15.712"/>
<path d="M564.65 69.4746H405.075V229.05H564.65V69.4746Z" stroke="#0552B5" stroke-opacity="0.1" stroke-width="15.712"/>
<path d="M552.375 81.75H417.35V216.775H552.375V81.75Z" stroke="#0552B5" stroke-opacity="0.1" stroke-width="15.712"/>
<path d="M540.1 94.0249H429.625V204.5H540.1V94.0249Z" stroke="#0552B5" stroke-opacity="0.1" stroke-width="15.712"/>
<path d="M527.825 106.3H441.9V192.225H527.825V106.3Z" stroke="#0552B5" stroke-opacity="0.1" stroke-width="15.712"/>
<path d="M515.55 118.575H454.175V179.95H515.55V118.575Z" stroke="#0552B5" stroke-opacity="0.1" stroke-width="15.712"/>
<path d="M503.275 130.85H466.45V167.675H503.275V130.85Z" stroke="#0552B5" stroke-opacity="0.1" stroke-width="15.712"/>
<path d="M491 143.125H478.725V155.4H491V143.125Z" stroke="#0552B5" stroke-opacity="0.1" stroke-width="15.712"/>
<path d="M576.925 -41H491V44.925H576.925V-41Z" stroke="#0552B5" stroke-opacity="0.1" stroke-width="15.712"/>
<path d="M564.65 -28.7251H503.275V32.6499H564.65V-28.7251Z" stroke="#0552B5" stroke-opacity="0.1" stroke-width="15.712"/>
<path d="M552.375 -16.4502H515.55V20.3748H552.375V-16.4502Z" stroke="#0552B5" stroke-opacity="0.1" stroke-width="15.712"/>
<path d="M540.1 -4.17529H527.825V8.09971H540.1V-4.17529Z" stroke="#0552B5" stroke-opacity="0.1" stroke-width="15.712"/>
<path d="M773.325 -41H589.2V143.125H773.325V-41Z" stroke="#0552B5" stroke-opacity="0.1" stroke-width="15.712"/>
<path d="M761.05 -28.7251H601.475V130.85H761.05V-28.7251Z" stroke="#0552B5" stroke-opacity="0.1" stroke-width="15.712"/>
<path d="M748.775 -16.4502H613.75V118.575H748.775V-16.4502Z" stroke="#0552B5" stroke-opacity="0.1" stroke-width="15.712"/>
<path d="M736.5 -4.17529H626.025V106.3H736.5V-4.17529Z" stroke="#0552B5" stroke-opacity="0.1" stroke-width="15.712"/>
<path d="M724.225 8.09961H638.3V94.0246H724.225V8.09961Z" stroke="#0552B5" stroke-opacity="0.1" stroke-width="15.712"/>
<path d="M711.95 20.375H650.575V81.75H711.95V20.375Z" stroke="#0552B5" stroke-opacity="0.1" stroke-width="15.712"/>
<path d="M699.675 32.6499H662.85V69.4749H699.675V32.6499Z" stroke="#0552B5" stroke-opacity="0.1" stroke-width="15.712"/>
<path d="M687.4 44.9248H675.125V57.1998H687.4V44.9248Z" stroke="#0552B5" stroke-opacity="0.1" stroke-width="15.712"/>
<path d="M675.125 155.4H589.2V241.325H675.125V155.4Z" stroke="#0552B5" stroke-opacity="0.1" stroke-width="15.712"/>
<path d="M662.85 167.675H601.475V229.05H662.85V167.675Z" stroke="#0552B5" stroke-opacity="0.1" stroke-width="15.712"/>
<path d="M650.575 179.95H613.75V216.775H650.575V179.95Z" stroke="#0552B5" stroke-opacity="0.1" stroke-width="15.712"/>
<path d="M638.3 192.225H626.025V204.5H638.3V192.225Z" stroke="#0552B5" stroke-opacity="0.1" stroke-width="15.712"/>
<path d="M675.125 253.6H491V437.725H675.125V253.6Z" stroke="#0552B5" stroke-opacity="0.1" stroke-width="15.712"/>
<path d="M662.85 265.875H503.275V425.45H662.85V265.875Z" stroke="#0552B5" stroke-opacity="0.1" stroke-width="15.712"/>
<path d="M650.575 278.15H515.55V413.175H650.575V278.15Z" stroke="#0552B5" stroke-opacity="0.1" stroke-width="15.712"/>
<path d="M638.3 290.425H527.825V400.9H638.3V290.425Z" stroke="#0552B5" stroke-opacity="0.1" stroke-width="15.712"/>
<path d="M626.025 302.7H540.1V388.625H626.025V302.7Z" stroke="#0552B5" stroke-opacity="0.1" stroke-width="15.712"/>
<path d="M613.75 314.975H552.375V376.35H613.75V314.975Z" stroke="#0552B5" stroke-opacity="0.1" stroke-width="15.712"/>
<path d="M601.475 327.25H564.65V364.075H601.475V327.25Z" stroke="#0552B5" stroke-opacity="0.1" stroke-width="15.712"/>
<path d="M589.2 339.525H576.925V351.8H589.2V339.525Z" stroke="#0552B5" stroke-opacity="0.1" stroke-width="15.712"/>
<path d="M773.325 450H589.2V634.125H773.325V450Z" stroke="#0552B5" stroke-opacity="0.1" stroke-width="15.712"/>
<path d="M871.525 155.4H687.4V339.525H871.525V155.4Z" stroke="#0552B5" stroke-opacity="0.1" stroke-width="15.712"/>
<path d="M859.25 167.675H699.675V327.25H859.25V167.675Z" stroke="#0552B5" stroke-opacity="0.1" stroke-width="15.712"/>
<path d="M846.975 179.95H711.95V314.975H846.975V179.95Z" stroke="#0552B5" stroke-opacity="0.1" stroke-width="15.712"/>
<path d="M834.7 192.225H724.225V302.7H834.7V192.225Z" stroke="#0552B5" stroke-opacity="0.1" stroke-width="15.712"/>
<path d="M773.325 351.8H687.4V437.725H773.325V351.8Z" stroke="#0552B5" stroke-opacity="0.1" stroke-width="15.712"/>
<path d="M761.05 364.075H699.675V425.45H761.05V364.075Z" stroke="#0552B5" stroke-opacity="0.1" stroke-width="15.712"/>
<path d="M748.775 376.35H711.95V413.175H748.775V376.35Z" stroke="#0552B5" stroke-opacity="0.1" stroke-width="15.712"/>
<path d="M736.5 388.625H724.225V400.9H736.5V388.625Z" stroke="#0552B5" stroke-opacity="0.1" stroke-width="15.712"/>
<path d="M576.925 450H491V535.925H576.925V450Z" stroke="#0552B5" stroke-opacity="0.1" stroke-width="15.712"/>
</g>
<g clip-path="url(#clip2)">
<path d="M85.925 548.2H-98.2V732.325H85.925V548.2Z" stroke="#0552B5" stroke-opacity="0.1" stroke-width="15.712"/>
<path d="M73.65 560.475H-85.925V720.05H73.65V560.475Z" stroke="#0552B5" stroke-opacity="0.1" stroke-width="15.712"/>
<path d="M61.375 572.75H-73.65V707.775H61.375V572.75Z" stroke="#0552B5" stroke-opacity="0.1" stroke-width="15.712"/>
<path d="M49.1 585.025H-61.375V695.5H49.1V585.025Z" stroke="#0552B5" stroke-opacity="0.1" stroke-width="15.712"/>
<path d="M36.825 597.3H-49.1V683.225H36.825V597.3Z" stroke="#0552B5" stroke-opacity="0.1" stroke-width="15.712"/>
<path d="M24.55 609.575H-36.825V670.95H24.55V609.575Z" stroke="#0552B5" stroke-opacity="0.1" stroke-width="15.712"/>
<path d="M12.2749 621.85H-24.55V658.675H12.2749V621.85Z" stroke="#0552B5" stroke-opacity="0.1" stroke-width="15.712"/>
<path d="M-2.47955e-05 634.125H-12.275V646.4H-2.47955e-05V634.125Z" stroke="#0552B5" stroke-opacity="0.1" stroke-width="15.712"/>
<path d="M85.925 450H0V535.925H85.925V450Z" stroke="#0552B5" stroke-opacity="0.1" stroke-width="15.712"/>
<path d="M73.65 462.275H12.275V523.65H73.65V462.275Z" stroke="#0552B5" stroke-opacity="0.1" stroke-width="15.712"/>
<path d="M61.375 474.55H24.55V511.375H61.375V474.55Z" stroke="#0552B5" stroke-opacity="0.1" stroke-width="15.712"/>
<path d="M49.1 486.825H36.825V499.1H49.1V486.825Z" stroke="#0552B5" stroke-opacity="0.1" stroke-width="15.712"/>
<path d="M282.325 450H98.2V634.125H282.325V450Z" stroke="#0552B5" stroke-opacity="0.1" stroke-width="15.712"/>
<path d="M270.05 462.275H110.475V621.85H270.05V462.275Z" stroke="#0552B5" stroke-opacity="0.1" stroke-width="15.712"/>
<path d="M257.775 474.55H122.75V609.575H257.775V474.55Z" stroke="#0552B5" stroke-opacity="0.1" stroke-width="15.712"/>
<path d="M245.5 486.825H135.025V597.3H245.5V486.825Z" stroke="#0552B5" stroke-opacity="0.1" stroke-width="15.712"/>
<path d="M233.225 499.1H147.3V585.025H233.225V499.1Z" stroke="#0552B5" stroke-opacity="0.1" stroke-width="15.712"/>
<path d="M220.95 511.375H159.575V572.75H220.95V511.375Z" stroke="#0552B5" stroke-opacity="0.1" stroke-width="15.712"/>
<path d="M208.675 523.65H171.85V560.475H208.675V523.65Z" stroke="#0552B5" stroke-opacity="0.1" stroke-width="15.712"/>
<path d="M196.4 535.925H184.125V548.2H196.4V535.925Z" stroke="#0552B5" stroke-opacity="0.1" stroke-width="15.712"/>
<path d="M184.125 646.4H98.2V732.325H184.125V646.4Z" stroke="#0552B5" stroke-opacity="0.1" stroke-width="15.712"/>
<path d="M171.85 658.675H110.475V720.05H171.85V658.675Z" stroke="#0552B5" stroke-opacity="0.1" stroke-width="15.712"/>
<path d="M159.575 670.95H122.75V707.775H159.575V670.95Z" stroke="#0552B5" stroke-opacity="0.1" stroke-width="15.712"/>
<path d="M147.3 683.225H135.025V695.5H147.3V683.225Z" stroke="#0552B5" stroke-opacity="0.1" stroke-width="15.712"/>
<path d="M478.725 351.8H294.6V535.925H478.725V351.8Z" stroke="#0552B5" stroke-opacity="0.1" stroke-width="15.712"/>
<path d="M466.45 364.075H306.875V523.65H466.45V364.075Z" stroke="#0552B5" stroke-opacity="0.1" stroke-width="15.712"/>
<path d="M454.175 376.35H319.15V511.375H454.175V376.35Z" stroke="#0552B5" stroke-opacity="0.1" stroke-width="15.712"/>
<path d="M441.9 388.625H331.425V499.1H441.9V388.625Z" stroke="#0552B5" stroke-opacity="0.1" stroke-width="15.712"/>
<path d="M429.625 400.9H343.7V486.825H429.625V400.9Z" stroke="#0552B5" stroke-opacity="0.1" stroke-width="15.712"/>
<path d="M417.35 413.175H355.975V474.55H417.35V413.175Z" stroke="#0552B5" stroke-opacity="0.1" stroke-width="15.712"/>
<path d="M405.075 425.45H368.25V462.275H405.075V425.45Z" stroke="#0552B5" stroke-opacity="0.1" stroke-width="15.712"/>
<path d="M392.8 437.725H380.525V450H392.8V437.725Z" stroke="#0552B5" stroke-opacity="0.1" stroke-width="15.712"/>
<path d="M380.525 548.2H294.6V634.125H380.525V548.2Z" stroke="#0552B5" stroke-opacity="0.1" stroke-width="15.712"/>
<path d="M368.25 560.475H306.875V621.85H368.25V560.475Z" stroke="#0552B5" stroke-opacity="0.1" stroke-width="15.712"/>
<path d="M355.975 572.75H319.15V609.575H355.975V572.75Z" stroke="#0552B5" stroke-opacity="0.1" stroke-width="15.712"/>
<path d="M343.7 585.025H331.425V597.3H343.7V585.025Z" stroke="#0552B5" stroke-opacity="0.1" stroke-width="15.712"/>
<path d="M184.125 744.6H0V928.725H184.125V744.6Z" stroke="#0552B5" stroke-opacity="0.1" stroke-width="15.712"/>
<path d="M171.85 756.875H12.275V916.45H171.85V756.875Z" stroke="#0552B5" stroke-opacity="0.1" stroke-width="15.712"/>
<path d="M159.575 769.15H24.55V904.175H159.575V769.15Z" stroke="#0552B5" stroke-opacity="0.1" stroke-width="15.712"/>
<path d="M147.3 781.425H36.825V891.9H147.3V781.425Z" stroke="#0552B5" stroke-opacity="0.1" stroke-width="15.712"/>
<path d="M135.025 793.7H49.1V879.625H135.025V793.7Z" stroke="#0552B5" stroke-opacity="0.1" stroke-width="15.712"/>
<path d="M122.75 805.975H61.375V867.35H122.75V805.975Z" stroke="#0552B5" stroke-opacity="0.1" stroke-width="15.712"/>
<path d="M110.475 818.25H73.65V855.075H110.475V818.25Z" stroke="#0552B5" stroke-opacity="0.1" stroke-width="15.712"/>
<path d="M98.2 830.525H85.925V842.8H98.2V830.525Z" stroke="#0552B5" stroke-opacity="0.1" stroke-width="15.712"/>
<path d="M675.125 744.6H491V928.725H675.125V744.6Z" stroke="#0552B5" stroke-opacity="0.1" stroke-width="15.712"/>
<path d="M380.525 646.4H196.4V830.525H380.525V646.4Z" stroke="#0552B5" stroke-opacity="0.1" stroke-width="15.712"/>
<path d="M368.25 658.675H208.675V818.25H368.25V658.675Z" stroke="#0552B5" stroke-opacity="0.1" stroke-width="15.712"/>
<path d="M355.975 670.95H220.95V805.975H355.975V670.95Z" stroke="#0552B5" stroke-opacity="0.1" stroke-width="15.712"/>
<path d="M343.7 683.225H233.225V793.7H343.7V683.225Z" stroke="#0552B5" stroke-opacity="0.1" stroke-width="15.712"/>
<path d="M331.425 695.5H245.5V781.425H331.425V695.5Z" stroke="#0552B5" stroke-opacity="0.1" stroke-width="15.712"/>
<path d="M319.15 707.775H257.775V769.15H319.15V707.775Z" stroke="#0552B5" stroke-opacity="0.1" stroke-width="15.712"/>
<path d="M306.875 720.05H270.05V756.875H306.875V720.05Z" stroke="#0552B5" stroke-opacity="0.1" stroke-width="15.712"/>
<path d="M294.6 732.325H282.325V744.6H294.6V732.325Z" stroke="#0552B5" stroke-opacity="0.1" stroke-width="15.712"/>
<path d="M282.325 842.8H196.4V928.725H282.325V842.8Z" stroke="#0552B5" stroke-opacity="0.1" stroke-width="15.712"/>
<path d="M270.05 855.075H208.675V916.45H270.05V855.075Z" stroke="#0552B5" stroke-opacity="0.1" stroke-width="15.712"/>
<path d="M257.775 867.35H220.95V904.175H257.775V867.35Z" stroke="#0552B5" stroke-opacity="0.1" stroke-width="15.712"/>
<path d="M245.5 879.625H233.225V891.9H245.5V879.625Z" stroke="#0552B5" stroke-opacity="0.1" stroke-width="15.712"/>
<path d="M478.725 842.8H294.6V1026.92H478.725V842.8Z" stroke="#0552B5" stroke-opacity="0.1" stroke-width="15.712"/>
<path d="M466.45 855.075H306.875V1014.65H466.45V855.075Z" stroke="#0552B5" stroke-opacity="0.1" stroke-width="15.712"/>
<path d="M454.175 867.35H319.15V1002.37H454.175V867.35Z" stroke="#0552B5" stroke-opacity="0.1" stroke-width="15.712"/>
<path d="M441.9 879.625H331.425V990.1H441.9V879.625Z" stroke="#0552B5" stroke-opacity="0.1" stroke-width="15.712"/>
<path d="M429.625 891.9H343.7V977.825H429.625V891.9Z" stroke="#0552B5" stroke-opacity="0.1" stroke-width="15.712"/>
<path d="M417.35 904.175H355.975V965.55H417.35V904.175Z" stroke="#0552B5" stroke-opacity="0.1" stroke-width="15.712"/>
<path d="M576.925 548.2H392.8V732.325H576.925V548.2Z" stroke="#0552B5" stroke-opacity="0.1" stroke-width="15.712"/>
<path d="M564.65 560.475H405.075V720.05H564.65V560.475Z" stroke="#0552B5" stroke-opacity="0.1" stroke-width="15.712"/>
<path d="M552.375 572.75H417.35V707.775H552.375V572.75Z" stroke="#0552B5" stroke-opacity="0.1" stroke-width="15.712"/>
<path d="M540.1 585.025H429.625V695.5H540.1V585.025Z" stroke="#0552B5" stroke-opacity="0.1" stroke-width="15.712"/>
<path d="M527.825 597.3H441.9V683.225H527.825V597.3Z" stroke="#0552B5" stroke-opacity="0.1" stroke-width="15.712"/>
<path d="M515.55 609.575H454.175V670.95H515.55V609.575Z" stroke="#0552B5" stroke-opacity="0.1" stroke-width="15.712"/>
<path d="M503.275 621.85H466.45V658.675H503.275V621.85Z" stroke="#0552B5" stroke-opacity="0.1" stroke-width="15.712"/>
<path d="M491 634.125H478.725V646.4H491V634.125Z" stroke="#0552B5" stroke-opacity="0.1" stroke-width="15.712"/>
<path d="M478.725 744.6H392.8V830.525H478.725V744.6Z" stroke="#0552B5" stroke-opacity="0.1" stroke-width="15.712"/>
<path d="M466.45 756.875H405.075V818.25H466.45V756.875Z" stroke="#0552B5" stroke-opacity="0.1" stroke-width="15.712"/>
<path d="M454.175 769.15H417.35V805.975H454.175V769.15Z" stroke="#0552B5" stroke-opacity="0.1" stroke-width="15.712"/>
<path d="M441.9 781.425H429.625V793.7H441.9V781.425Z" stroke="#0552B5" stroke-opacity="0.1" stroke-width="15.712"/>
<path d="M576.925 450H491V535.925H576.925V450Z" stroke="#0552B5" stroke-opacity="0.1" stroke-width="15.712"/>
</g>
<g clip-path="url(#clip3)">
<path d="M576.925 548.2H392.8V732.325H576.925V548.2Z" stroke="#0552B5" stroke-opacity="0.1" stroke-width="15.712"/>
<path d="M564.65 560.475H405.075V720.05H564.65V560.475Z" stroke="#0552B5" stroke-opacity="0.1" stroke-width="15.712"/>
<path d="M552.375 572.75H417.35V707.775H552.375V572.75Z" stroke="#0552B5" stroke-opacity="0.1" stroke-width="15.712"/>
<path d="M540.1 585.025H429.625V695.5H540.1V585.025Z" stroke="#0552B5" stroke-opacity="0.1" stroke-width="15.712"/>
<path d="M527.825 597.3H441.9V683.225H527.825V597.3Z" stroke="#0552B5" stroke-opacity="0.1" stroke-width="15.712"/>
<path d="M515.55 609.575H454.175V670.95H515.55V609.575Z" stroke="#0552B5" stroke-opacity="0.1" stroke-width="15.712"/>
<path d="M503.275 621.85H466.45V658.675H503.275V621.85Z" stroke="#0552B5" stroke-opacity="0.1" stroke-width="15.712"/>
<path d="M491 634.125H478.725V646.4H491V634.125Z" stroke="#0552B5" stroke-opacity="0.1" stroke-width="15.712"/>
<path d="M576.925 450H491V535.925H576.925V450Z" stroke="#0552B5" stroke-opacity="0.1" stroke-width="15.712"/>
<path d="M564.65 462.275H503.275V523.65H564.65V462.275Z" stroke="#0552B5" stroke-opacity="0.1" stroke-width="15.712"/>
<path d="M552.375 474.55H515.55V511.375H552.375V474.55Z" stroke="#0552B5" stroke-opacity="0.1" stroke-width="15.712"/>
<path d="M540.1 486.825H527.825V499.1H540.1V486.825Z" stroke="#0552B5" stroke-opacity="0.1" stroke-width="15.712"/>
<path d="M773.325 450H589.2V634.125H773.325V450Z" stroke="#0552B5" stroke-opacity="0.1" stroke-width="15.712"/>
<path d="M761.05 462.275H601.475V621.85H761.05V462.275Z" stroke="#0552B5" stroke-opacity="0.1" stroke-width="15.712"/>
<path d="M748.775 474.55H613.75V609.575H748.775V474.55Z" stroke="#0552B5" stroke-opacity="0.1" stroke-width="15.712"/>
<path d="M736.5 486.825H626.025V597.3H736.5V486.825Z" stroke="#0552B5" stroke-opacity="0.1" stroke-width="15.712"/>
<path d="M724.225 499.1H638.3V585.025H724.225V499.1Z" stroke="#0552B5" stroke-opacity="0.1" stroke-width="15.712"/>
<path d="M711.95 511.375H650.575V572.75H711.95V511.375Z" stroke="#0552B5" stroke-opacity="0.1" stroke-width="15.712"/>
<path d="M699.675 523.65H662.85V560.475H699.675V523.65Z" stroke="#0552B5" stroke-opacity="0.1" stroke-width="15.712"/>
<path d="M687.4 535.925H675.125V548.2H687.4V535.925Z" stroke="#0552B5" stroke-opacity="0.1" stroke-width="15.712"/>
<path d="M675.125 646.4H589.2V732.325H675.125V646.4Z" stroke="#0552B5" stroke-opacity="0.1" stroke-width="15.712"/>
<path d="M662.85 658.675H601.475V720.05H662.85V658.675Z" stroke="#0552B5" stroke-opacity="0.1" stroke-width="15.712"/>
<path d="M650.575 670.95H613.75V707.775H650.575V670.95Z" stroke="#0552B5" stroke-opacity="0.1" stroke-width="15.712"/>
<path d="M638.3 683.225H626.025V695.5H638.3V683.225Z" stroke="#0552B5" stroke-opacity="0.1" stroke-width="15.712"/>
<path d="M675.125 744.6H491V928.725H675.125V744.6Z" stroke="#0552B5" stroke-opacity="0.1" stroke-width="15.712"/>
<path d="M662.85 756.875H503.275V916.45H662.85V756.875Z" stroke="#0552B5" stroke-opacity="0.1" stroke-width="15.712"/>
<path d="M650.575 769.15H515.55V904.175H650.575V769.15Z" stroke="#0552B5" stroke-opacity="0.1" stroke-width="15.712"/>
<path d="M638.3 781.425H527.825V891.9H638.3V781.425Z" stroke="#0552B5" stroke-opacity="0.1" stroke-width="15.712"/>
<path d="M626.025 793.7H540.1V879.625H626.025V793.7Z" stroke="#0552B5" stroke-opacity="0.1" stroke-width="15.712"/>
<path d="M613.75 805.975H552.375V867.35H613.75V805.975Z" stroke="#0552B5" stroke-opacity="0.1" stroke-width="15.712"/>
<path d="M601.475 818.25H564.65V855.075H601.475V818.25Z" stroke="#0552B5" stroke-opacity="0.1" stroke-width="15.712"/>
<path d="M589.2 830.525H576.925V842.8H589.2V830.525Z" stroke="#0552B5" stroke-opacity="0.1" stroke-width="15.712"/>
<path d="M871.525 646.4H687.4V830.525H871.525V646.4Z" stroke="#0552B5" stroke-opacity="0.1" stroke-width="15.712"/>
<path d="M859.25 658.675H699.675V818.25H859.25V658.675Z" stroke="#0552B5" stroke-opacity="0.1" stroke-width="15.712"/>
<path d="M846.975 670.95H711.95V805.975H846.975V670.95Z" stroke="#0552B5" stroke-opacity="0.1" stroke-width="15.712"/>
<path d="M834.7 683.225H724.225V793.7H834.7V683.225Z" stroke="#0552B5" stroke-opacity="0.1" stroke-width="15.712"/>
<path d="M773.325 842.8H687.4V928.725H773.325V842.8Z" stroke="#0552B5" stroke-opacity="0.1" stroke-width="15.712"/>
<path d="M761.05 855.075H699.675V916.45H761.05V855.075Z" stroke="#0552B5" stroke-opacity="0.1" stroke-width="15.712"/>
<path d="M748.775 867.35H711.95V904.175H748.775V867.35Z" stroke="#0552B5" stroke-opacity="0.1" stroke-width="15.712"/>
<path d="M736.5 879.625H724.225V891.9H736.5V879.625Z" stroke="#0552B5" stroke-opacity="0.1" stroke-width="15.712"/>
</g>
</g>
<defs>
<clipPath id="clip0">
<rect y="-41" width="491" height="491" fill="white"/>
</clipPath>
<clipPath id="clip1">
<rect x="491" y="-41" width="491" height="491" fill="white"/>
</clipPath>
<clipPath id="clip2">
<rect y="450" width="491" height="491" fill="white"/>
</clipPath>
<clipPath id="clip3">
<rect x="491" y="450" width="491" height="491" fill="white"/>
</clipPath>
</defs>
</svg>
