<svg width="25" height="25" viewBox="0 0 25 25" fill="none" xmlns="http://www.w3.org/2000/svg">
<g clip-path="url(#clip0)">
<path d="M24.6024 4.52168C24.0469 4.76799 23.4703 4.96231 22.8786 5.10299C23.5306 4.48347 24.0208 3.70858 24.2973 2.84366C24.3763 2.59674 24.1081 2.38323 23.8851 2.51543C23.062 3.00366 22.1754 3.36993 21.2498 3.60417C21.1961 3.61776 21.1407 3.62465 21.0851 3.62465C20.9165 3.62465 20.7526 3.56205 20.6237 3.44843C19.639 2.58053 18.3724 2.10254 17.0575 2.10254C16.4885 2.10254 15.914 2.19123 15.35 2.36616C13.6023 2.90821 12.2539 4.3498 11.8308 6.12839C11.6721 6.79552 11.6291 7.46325 11.703 8.11301C11.7115 8.18768 11.6762 8.23979 11.6544 8.26423C11.6162 8.30708 11.562 8.33165 11.5058 8.33165C11.4995 8.33165 11.493 8.33134 11.4866 8.33073C7.66111 7.97532 4.21144 6.13229 1.77303 3.14123C1.64868 2.98867 1.41024 3.00738 1.31113 3.17738C0.833627 3.99658 0.581283 4.93354 0.581283 5.88696C0.581283 7.34811 1.16832 8.72509 2.18799 9.72892C1.75919 9.62725 1.34417 9.46713 0.958641 9.253C0.772126 9.14938 0.542639 9.28257 0.540018 9.4959C0.513321 11.6665 1.78418 13.598 3.68797 14.4677C3.64964 14.4687 3.6113 14.4691 3.5729 14.4691C3.27112 14.4691 2.96556 14.4399 2.66482 14.3825C2.45478 14.3424 2.27832 14.5416 2.34354 14.7453C2.96148 16.6745 4.62256 18.0965 6.61035 18.4194C4.9606 19.5268 3.03944 20.111 1.03989 20.111L0.416529 20.1106C0.224467 20.1106 0.0620284 20.2358 0.0130835 20.4218C-0.03513 20.605 0.0536779 20.7983 0.217457 20.8936C2.47063 22.2049 5.0407 22.8979 7.65093 22.8979C9.93573 22.8979 12.073 22.4445 14.0033 21.5503C15.773 20.7306 17.3368 19.5587 18.6513 18.0674C19.8758 16.6782 20.8334 15.0745 21.4973 13.3009C22.1301 11.6102 22.4647 9.80627 22.4647 8.08399V8.00195C22.4646 7.72541 22.5897 7.4652 22.8079 7.28808C23.6359 6.61577 24.357 5.82436 24.951 4.93586C25.1078 4.70125 24.8605 4.40722 24.6024 4.52168Z" fill="#454545"/>
</g>
<defs>
<clipPath id="clip0">
<rect width="25" height="25" fill="white"/>
</clipPath>
</defs>
</svg>
